<svg width="338" height="61" viewBox="0 0 338 61" fill="none" xmlns="http://www.w3.org/2000/svg">
<path d="M2.00003 27.4241L27.4194 53.4737C29.0182 55.112 31.3136 55.2536 32.9842 53.8169L47.5 41.3329" stroke="#FF9B53" stroke-width="6"/>
<path d="M35.4439 32.4984V36.5C35.4439 37.0523 34.9962 37.5 34.4439 37.5H25.569C25.0167 37.5 24.569 37.0523 24.569 36.5V32.4984M35.4439 32.4984C35.4439 32.4984 36.9973 28.6278 38.5509 23.3056C40.1044 17.9834 41.2696 3 30.3947 3C19.5198 3 18.7432 16.0481 21.0735 23.3056C23.4039 30.5631 24.569 32.4984 24.569 32.4984M35.4439 32.4984H24.569" stroke="#FFFBFB" stroke-width="5"/>
<path d="M65.668 58H52.7383C52.6341 58 52.582 57.9349 52.582 57.8047L52.6211 30.3242C52.6211 30.2201 52.6732 30.168 52.7773 30.168H65.6289C65.7331 30.168 65.7852 30.2331 65.7852 30.3633V34.8359C65.7852 34.9401 65.7331 34.9922 65.6289 34.9922H57.4258V41.2422H65.6289C65.7331 41.2422 65.7852 41.2943 65.7852 41.3984L65.8242 45.9297C65.8242 46.0339 65.7721 46.0859 65.668 46.0859H57.4258V53.0781H65.668C65.7721 53.0781 65.8242 53.1432 65.8242 53.2734V57.8438C65.8242 57.9479 65.7721 58 65.668 58ZM68.0312 57.8047L72.9922 30.3242C73.0182 30.2201 73.0833 30.168 73.1875 30.168H78.9883C79.0924 30.168 79.1576 30.2201 79.1836 30.3242L83.9492 57.8047C83.9622 57.9349 83.9102 58 83.793 58H79.3594C79.2292 58 79.1576 57.9349 79.1445 57.8047L78.7148 54.875H73.2656L72.8359 57.8047C72.8229 57.9349 72.7578 58 72.6406 58H68.1875C68.0833 58 68.0312 57.9349 68.0312 57.8047ZM75.8633 39.3672L74.0664 50.5977H77.9141L76.2734 39.3672L76.0391 37.8828L75.8633 39.3672ZM91.1367 58H86.6055C86.5013 58 86.4492 57.9349 86.4492 57.8047L86.5273 30.3242C86.5273 30.2201 86.5794 30.168 86.6836 30.168H94.7695C96.2148 30.168 97.543 30.5195 98.7539 31.2227C99.9648 31.9258 100.928 32.8698 101.645 34.0547C102.374 35.2396 102.738 36.5807 102.738 38.0781C102.738 39.0547 102.589 39.9401 102.289 40.7344C101.99 41.5286 101.638 42.1992 101.234 42.7461C100.844 43.293 100.486 43.6966 100.16 43.957C101.605 45.5586 102.328 47.4401 102.328 49.6016L102.367 57.8047C102.367 57.9349 102.302 58 102.172 58H97.6406C97.5365 58 97.4844 57.9609 97.4844 57.8828V49.6016C97.4844 48.638 97.1458 47.8047 96.4688 47.1016C95.7917 46.3984 94.9583 46.0469 93.9688 46.0469H91.332L91.293 57.8047C91.293 57.9349 91.2409 58 91.1367 58ZM94.7695 34.9531H91.332V41.2422H94.7695C95.5898 41.2422 96.319 40.9362 96.957 40.3242C97.6081 39.7122 97.9336 38.9635 97.9336 38.0781C97.9336 37.2318 97.6211 36.5026 96.9961 35.8906C96.3711 35.2656 95.6289 34.9531 94.7695 34.9531ZM110.102 58H106.098C105.889 58 105.785 57.9089 105.785 57.7266L105.746 30.4805C105.746 30.2721 105.85 30.168 106.059 30.168H109.672L116.43 45.9297L116.234 30.4805C116.234 30.2721 116.352 30.168 116.586 30.168H120.551C120.707 30.168 120.785 30.2721 120.785 30.4805L120.824 57.7656C120.824 57.9219 120.759 58 120.629 58H117.113L110.18 43.2734L110.473 57.6875C110.473 57.8958 110.349 58 110.102 58ZM143.227 58H138.715C138.598 58 138.539 57.9349 138.539 57.8047V34.9922H133.344C133.214 34.9922 133.148 34.9271 133.148 34.7969L133.188 30.3242C133.188 30.2201 133.24 30.168 133.344 30.168H148.539C148.682 30.168 148.754 30.2201 148.754 30.3242V34.7969C148.754 34.9271 148.702 34.9922 148.598 34.9922H143.344L143.383 57.8047C143.383 57.9349 143.331 58 143.227 58ZM156.898 58.3906C155.479 58.3906 154.171 58.026 152.973 57.2969C151.788 56.5677 150.831 55.5977 150.102 54.3867C149.385 53.1628 149.027 51.8216 149.027 50.3633L149.066 37.6875C149.066 36.2031 149.424 34.8685 150.141 33.6836C150.844 32.4857 151.794 31.5286 152.992 30.8125C154.19 30.0833 155.492 29.7188 156.898 29.7188C158.357 29.7188 159.665 30.0768 160.824 30.793C161.996 31.5091 162.934 32.4727 163.637 33.6836C164.353 34.8815 164.711 36.2161 164.711 37.6875L164.75 50.3633C164.75 51.8216 164.398 53.1562 163.695 54.3672C162.979 55.5911 162.029 56.5677 160.844 57.2969C159.659 58.026 158.344 58.3906 156.898 58.3906ZM156.898 53.5664C157.706 53.5664 158.409 53.2409 159.008 52.5898C159.607 51.9258 159.906 51.1836 159.906 50.3633L159.867 37.6875C159.867 36.8021 159.587 36.0534 159.027 35.4414C158.467 34.8294 157.758 34.5234 156.898 34.5234C156.078 34.5234 155.375 34.8229 154.789 35.4219C154.203 36.0208 153.91 36.776 153.91 37.6875V50.3633C153.91 51.2357 154.203 51.9909 154.789 52.6289C155.375 53.2539 156.078 53.5664 156.898 53.5664ZM175.18 58.3906C173.76 58.3906 172.452 58.026 171.254 57.2969C170.069 56.5677 169.112 55.5977 168.383 54.3867C167.667 53.1628 167.309 51.8216 167.309 50.3633L167.348 37.6875C167.348 36.2031 167.706 34.8685 168.422 33.6836C169.125 32.4857 170.076 31.5286 171.273 30.8125C172.471 30.0833 173.773 29.7188 175.18 29.7188C176.638 29.7188 177.947 30.0768 179.105 30.793C180.277 31.5091 181.215 32.4727 181.918 33.6836C182.634 34.8815 182.992 36.2161 182.992 37.6875L183.031 50.3633C183.031 51.8216 182.68 53.1562 181.977 54.3672C181.26 55.5911 180.31 56.5677 179.125 57.2969C177.94 58.026 176.625 58.3906 175.18 58.3906ZM175.18 53.5664C175.987 53.5664 176.69 53.2409 177.289 52.5898C177.888 51.9258 178.188 51.1836 178.188 50.3633L178.148 37.6875C178.148 36.8021 177.868 36.0534 177.309 35.4414C176.749 34.8294 176.039 34.5234 175.18 34.5234C174.359 34.5234 173.656 34.8229 173.07 35.4219C172.484 36.0208 172.191 36.776 172.191 37.6875V50.3633C172.191 51.2357 172.484 51.9909 173.07 52.6289C173.656 53.2539 174.359 53.5664 175.18 53.5664ZM199.145 58H186.215C186.111 58 186.059 57.9349 186.059 57.8047L186.098 30.3633C186.098 30.2331 186.163 30.168 186.293 30.168H190.746C190.876 30.168 190.941 30.2331 190.941 30.3633L190.902 53.0781H199.145C199.275 53.0781 199.34 53.1432 199.34 53.2734V57.8047C199.34 57.9349 199.275 58 199.145 58ZM208.754 58.3906C207.335 58.3906 206.026 58.026 204.828 57.2969C203.643 56.5677 202.693 55.5977 201.977 54.3867C201.273 53.1628 200.922 51.8216 200.922 50.3633V48.5273C200.922 48.3841 200.987 48.3125 201.117 48.3125H205.609C205.714 48.3125 205.766 48.3841 205.766 48.5273V50.3633C205.766 51.2357 206.059 51.9909 206.645 52.6289C207.23 53.2539 207.934 53.5664 208.754 53.5664C209.587 53.5664 210.297 53.2474 210.883 52.6094C211.469 51.9583 211.762 51.2096 211.762 50.3633C211.762 49.3867 211.124 48.5339 209.848 47.8047C209.639 47.6745 209.366 47.5182 209.027 47.3359C208.702 47.1406 208.311 46.9193 207.855 46.6719C207.4 46.4245 206.957 46.1836 206.527 45.9492C206.098 45.7018 205.681 45.4674 205.277 45.2461C203.819 44.3867 202.732 43.3125 202.016 42.0234C201.312 40.7214 200.961 39.263 200.961 37.6484C200.961 36.1641 201.326 34.8229 202.055 33.625C202.784 32.4401 203.734 31.5026 204.906 30.8125C206.091 30.1094 207.374 29.7578 208.754 29.7578C210.173 29.7578 211.475 30.1094 212.66 30.8125C213.845 31.5286 214.789 32.4792 215.492 33.6641C216.208 34.849 216.566 36.1771 216.566 37.6484V40.9297C216.566 41.0339 216.514 41.0859 216.41 41.0859H211.918C211.814 41.0859 211.762 41.0339 211.762 40.9297L211.723 37.6484C211.723 36.7109 211.43 35.9492 210.844 35.3633C210.258 34.7773 209.561 34.4844 208.754 34.4844C207.934 34.4844 207.23 34.7969 206.645 35.4219C206.059 36.0469 205.766 36.7891 205.766 37.6484C205.766 38.5208 205.948 39.25 206.312 39.8359C206.69 40.4219 207.374 40.9818 208.363 41.5156C208.467 41.5677 208.708 41.6979 209.086 41.9062C209.464 42.1146 209.88 42.349 210.336 42.6094C210.805 42.8568 211.228 43.0846 211.605 43.293C211.983 43.4883 212.211 43.6055 212.289 43.6445C213.617 44.3867 214.665 45.2982 215.434 46.3789C216.215 47.4596 216.605 48.7878 216.605 50.3633C216.605 51.8867 216.254 53.2539 215.551 54.4648C214.835 55.6758 213.884 56.6328 212.699 57.3359C211.514 58.0391 210.199 58.3906 208.754 58.3906Z" fill="#E5E5E5"/>
</svg>
