<svg width="59" height="66" viewBox="0 0 59 66" fill="none" xmlns="http://www.w3.org/2000/svg">
<g filter="url(#filter0_d_103_67)">
<path d="M7.00003 26.0912L32.4194 52.1408C34.0182 53.7792 36.3136 53.9207 37.9842 52.484L52.5 40" stroke="#FF9B53" stroke-width="7"/>
<path d="M41.4439 32.4984V36.5C41.4439 37.0523 40.9962 37.5 40.4439 37.5H31.569C31.0167 37.5 30.569 37.0523 30.569 36.5V32.4984M41.4439 32.4984C41.4439 32.4984 42.9973 28.6278 44.5509 23.3056C46.1044 17.9834 47.2696 3 36.3947 3C25.5198 3 24.7432 16.0481 27.0735 23.3056C29.4039 30.5631 30.569 32.4984 30.569 32.4984M41.4439 32.4984H30.569" stroke="#F8F9FA" stroke-width="5"/>
</g>
<defs>
<filter id="filter0_d_103_67" x="0.982422" y="0.5" width="57.3953" height="64.7802" filterUnits="userSpaceOnUse" color-interpolation-filters="sRGB">
<feFlood flood-opacity="0" result="BackgroundImageFix"/>
<feColorMatrix in="SourceAlpha" type="matrix" values="0 0 0 0 0 0 0 0 0 0 0 0 0 0 0 0 0 0 127 0" result="hardAlpha"/>
<feOffset dy="4"/>
<feGaussianBlur stdDeviation="2"/>
<feComposite in2="hardAlpha" operator="out"/>
<feColorMatrix type="matrix" values="0 0 0 0 0 0 0 0 0 0 0 0 0 0 0 0 0 0 0.25 0"/>
<feBlend mode="normal" in2="BackgroundImageFix" result="effect1_dropShadow_103_67"/>
<feBlend mode="normal" in="SourceGraphic" in2="effect1_dropShadow_103_67" result="shape"/>
</filter>
</defs>
</svg>
